<?xml version="1.0" encoding="UTF-8" standalone="no"?>
<!DOCTYPE svg PUBLIC "-//W3C//DTD SVG 1.1//EN"
 "http://www.w3.org/Graphics/SVG/1.1/DTD/svg11.dtd">
<!-- Generated by graphviz version 2.40.1 (20161225.0304)
 -->
<!-- Title: architecture Pages: 1 -->
<svg width="388pt" height="190pt"
 viewBox="0.00 0.00 388.00 190.00" xmlns="http://www.w3.org/2000/svg" xmlns:xlink="http://www.w3.org/1999/xlink">
<g id="graph0" class="graph" transform="scale(1 1) rotate(0) translate(4 186)">
<title>architecture</title>
<polygon fill="#ffffff" stroke="transparent" points="-4,4 -4,-186 384,-186 384,4 -4,4"/>
<g id="clust1" class="cluster">
<title>clusterB</title>
<polygon fill="none" stroke="#000000" points="8,-44 8,-118 372,-118 372,-44 8,-44"/>
<text text-anchor="middle" x="190" y="-50.8" font-family="Times,serif" font-size="14.00" fill="#000000">Backend</text>
</g>
<!-- GraphQL -->
<g id="node1" class="node">
<title>GraphQL</title>
<polygon fill="none" stroke="#000000" points="85.6493,-110 16.3507,-110 16.3507,-74 85.6493,-74 85.6493,-110"/>
<text text-anchor="middle" x="51" y="-87.8" font-family="Times,serif" font-size="14.00" fill="#000000">GraphQL</text>
</g>
<!-- Database -->
<g id="node7" class="node">
<title>Database</title>
<polygon fill="none" stroke="#000000" points="218.8044,-36 151.1956,-36 151.1956,0 218.8044,0 218.8044,-36"/>
<text text-anchor="middle" x="185" y="-13.8" font-family="Times,serif" font-size="14.00" fill="#000000">Database</text>
</g>
<!-- GraphQL&#45;&gt;Database -->
<g id="edge6" class="edge">
<title>GraphQL&#45;&gt;Database</title>
<path fill="none" stroke="#000000" stroke-dasharray="5,2" d="M75.1997,-73.8392C88.5807,-64.2654 105.7466,-52.7308 122,-44 128.163,-40.6894 134.8397,-37.5212 141.4641,-34.6061"/>
<polygon fill="#000000" stroke="#000000" points="143.2294,-37.6591 151.0662,-30.5293 140.4936,-31.2158 143.2294,-37.6591"/>
</g>
<!-- Hypothesis -->
<g id="node2" class="node">
<title>Hypothesis</title>
<polygon fill="none" stroke="#000000" points="363.5,-110 284.5,-110 284.5,-74 363.5,-74 363.5,-110"/>
<text text-anchor="middle" x="324" y="-87.8" font-family="Times,serif" font-size="14.00" fill="#000000">Hypothesis</text>
</g>
<!-- Hypothesis&#45;&gt;Database -->
<g id="edge8" class="edge">
<title>Hypothesis&#45;&gt;Database</title>
<path fill="none" stroke="#000000" stroke-dasharray="5,2" d="M297.9285,-73.9666C283.556,-64.4301 265.1878,-52.8906 248,-44 241.7862,-40.7858 235.0821,-37.6695 228.4457,-34.7772"/>
<polygon fill="#000000" stroke="#000000" points="229.4097,-31.3848 218.836,-30.7147 226.6839,-37.8324 229.4097,-31.3848"/>
</g>
<!-- Redis -->
<g id="node8" class="node">
<title>Redis</title>
<polygon fill="none" stroke="#000000" points="351,-36 297,-36 297,0 351,0 351,-36"/>
<text text-anchor="middle" x="324" y="-13.8" font-family="Times,serif" font-size="14.00" fill="#000000">Redis</text>
</g>
<!-- Hypothesis&#45;&gt;Redis -->
<g id="edge9" class="edge">
<title>Hypothesis&#45;&gt;Redis</title>
<path fill="none" stroke="#000000" stroke-dasharray="5,2" d="M324,-73.7079C324,-65.4635 324,-55.5376 324,-46.3622"/>
<polygon fill="#000000" stroke="#000000" points="327.5001,-46.0817 324,-36.0817 320.5001,-46.0818 327.5001,-46.0817"/>
</g>
<!-- OAuth -->
<g id="node3" class="node">
<title>OAuth</title>
<polygon fill="none" stroke="#000000" points="212.1105,-110 157.8895,-110 157.8895,-74 212.1105,-74 212.1105,-110"/>
<text text-anchor="middle" x="185" y="-87.8" font-family="Times,serif" font-size="14.00" fill="#000000">OAuth</text>
</g>
<!-- OAuth&#45;&gt;Database -->
<g id="edge7" class="edge">
<title>OAuth&#45;&gt;Database</title>
<path fill="none" stroke="#000000" stroke-dasharray="5,2" d="M185,-73.7079C185,-65.4635 185,-55.5376 185,-46.3622"/>
<polygon fill="#000000" stroke="#000000" points="188.5001,-46.0817 185,-36.0817 181.5001,-46.0818 188.5001,-46.0817"/>
</g>
<!-- Frontend -->
<g id="node4" class="node">
<title>Frontend</title>
<polygon fill="none" stroke="#000000" points="210.0533,-182 143.9467,-182 143.9467,-146 210.0533,-146 210.0533,-182"/>
<text text-anchor="middle" x="177" y="-159.8" font-family="Times,serif" font-size="14.00" fill="#000000">Frontend</text>
</g>
<!-- Frontend&#45;&gt;GraphQL -->
<g id="edge1" class="edge">
<title>Frontend&#45;&gt;GraphQL</title>
<path fill="none" stroke="#000000" stroke-dasharray="5,2" d="M145.2049,-145.8314C128.9395,-136.5368 108.9614,-125.1208 91.5949,-115.1971"/>
<polygon fill="#000000" stroke="#000000" points="93.2039,-112.0854 82.7849,-110.1628 89.7309,-118.1631 93.2039,-112.0854"/>
</g>
<!-- Frontend&#45;&gt;OAuth -->
<g id="edge2" class="edge">
<title>Frontend&#45;&gt;OAuth</title>
<path fill="none" stroke="#000000" stroke-dasharray="5,2" d="M179.0187,-145.8314C179.8743,-138.131 180.8917,-128.9743 181.8426,-120.4166"/>
<polygon fill="#000000" stroke="#000000" points="185.3283,-120.7386 182.9541,-110.4133 178.3711,-119.9656 185.3283,-120.7386"/>
</g>
<!-- WebClipper -->
<g id="node5" class="node">
<title>WebClipper</title>
<polygon fill="none" stroke="#000000" points="365.8072,-182 282.1928,-182 282.1928,-146 365.8072,-146 365.8072,-182"/>
<text text-anchor="middle" x="324" y="-159.8" font-family="Times,serif" font-size="14.00" fill="#000000">WebClipper</text>
</g>
<!-- WebClipper&#45;&gt;Hypothesis -->
<g id="edge3" class="edge">
<title>WebClipper&#45;&gt;Hypothesis</title>
<path fill="none" stroke="#000000" stroke-dasharray="5,2" d="M324,-145.8314C324,-138.131 324,-128.9743 324,-120.4166"/>
<polygon fill="#000000" stroke="#000000" points="327.5001,-120.4132 324,-110.4133 320.5001,-120.4133 327.5001,-120.4132"/>
</g>
<!-- WebClipper&#45;&gt;OAuth -->
<g id="edge4" class="edge">
<title>WebClipper&#45;&gt;OAuth</title>
<path fill="none" stroke="#000000" stroke-dasharray="5,2" d="M288.9244,-145.8314C268.1873,-135.0898 241.98,-121.5148 221.0713,-110.6844"/>
<polygon fill="#000000" stroke="#000000" points="222.6612,-107.5663 212.1719,-106.0747 219.4416,-113.782 222.6612,-107.5663"/>
</g>
<!-- SMOTool -->
<g id="node6" class="node">
<title>SMOTool</title>
<polygon fill="none" stroke="#000000" points="71.8088,-182 .1912,-182 .1912,-146 71.8088,-146 71.8088,-182"/>
<text text-anchor="middle" x="36" y="-159.8" font-family="Times,serif" font-size="14.00" fill="#000000">SMOTool</text>
</g>
<!-- SMOTool&#45;&gt;GraphQL -->
<g id="edge5" class="edge">
<title>SMOTool&#45;&gt;GraphQL</title>
<path fill="none" stroke="#000000" stroke-dasharray="5,2" d="M39.7851,-145.8314C41.3894,-138.131 43.297,-128.9743 45.0799,-120.4166"/>
<polygon fill="#000000" stroke="#000000" points="48.5507,-120.9169 47.1639,-110.4133 41.6979,-119.4892 48.5507,-120.9169"/>
</g>
</g>
</svg>
