<?xml version="1.0" encoding="UTF-8" standalone="no"?>
<!DOCTYPE svg PUBLIC "-//W3C//DTD SVG 1.1//EN"
 "http://www.w3.org/Graphics/SVG/1.1/DTD/svg11.dtd">
<!-- Generated by graphviz version 2.40.1 (20161225.0304)
 -->
<!-- Title: architecture Pages: 1 -->
<svg width="236pt" height="262pt"
 viewBox="0.00 0.00 236.00 262.00" xmlns="http://www.w3.org/2000/svg" xmlns:xlink="http://www.w3.org/1999/xlink">
<g id="graph0" class="graph" transform="scale(1 1) rotate(0) translate(4 258)">
<title>architecture</title>
<polygon fill="#ffffff" stroke="transparent" points="-4,4 -4,-258 232,-258 232,4 -4,4"/>
<g id="clust1" class="cluster">
<title>clusterB</title>
<polygon fill="none" stroke="#000000" points="8,-44 8,-190 220,-190 220,-44 8,-44"/>
<text text-anchor="middle" x="114" y="-50.8" font-family="Times,serif" font-size="14.00" fill="#000000">Backend</text>
</g>
<!-- Frontend -->
<g id="node1" class="node">
<title>Frontend</title>
<polygon fill="none" stroke="#000000" points="143.0533,-254 76.9467,-254 76.9467,-218 143.0533,-218 143.0533,-254"/>
<text text-anchor="middle" x="110" y="-231.8" font-family="Times,serif" font-size="14.00" fill="#000000">Frontend</text>
</g>
<!-- Queue -->
<g id="node2" class="node">
<title>Queue</title>
<polygon fill="none" stroke="#000000" points="70,-182 16,-182 16,-146 70,-146 70,-182"/>
<text text-anchor="middle" x="43" y="-159.8" font-family="Times,serif" font-size="14.00" fill="#000000">Queue</text>
</g>
<!-- Frontend&#45;&gt;Queue -->
<g id="edge1" class="edge">
<title>Frontend&#45;&gt;Queue</title>
<path fill="none" stroke="#000000" stroke-dasharray="5,2" d="M93.0931,-217.8314C85.2187,-209.3694 75.708,-199.1489 67.0987,-189.8971"/>
<polygon fill="#000000" stroke="#000000" points="69.5092,-187.3497 60.1346,-182.4133 64.3847,-192.1183 69.5092,-187.3497"/>
</g>
<!-- TransactionRunner -->
<g id="node4" class="node">
<title>TransactionRunner</title>
<polygon fill="none" stroke="#000000" points="138.3117,-110 15.6883,-110 15.6883,-74 138.3117,-74 138.3117,-110"/>
<text text-anchor="middle" x="77" y="-87.8" font-family="Times,serif" font-size="14.00" fill="#000000">TransactionRunner</text>
</g>
<!-- Queue&#45;&gt;TransactionRunner -->
<g id="edge3" class="edge">
<title>Queue&#45;&gt;TransactionRunner</title>
<path fill="none" stroke="#000000" stroke-dasharray="5,2" d="M51.5796,-145.8314C55.3358,-137.8771 59.8257,-128.369 63.9798,-119.5723"/>
<polygon fill="#000000" stroke="#000000" points="67.1996,-120.9503 68.3048,-110.4133 60.8699,-117.9612 67.1996,-120.9503"/>
</g>
<!-- GraphQL -->
<g id="node3" class="node">
<title>GraphQL</title>
<polygon fill="none" stroke="#000000" points="211.6493,-182 142.3507,-182 142.3507,-146 211.6493,-146 211.6493,-182"/>
<text text-anchor="middle" x="177" y="-159.8" font-family="Times,serif" font-size="14.00" fill="#000000">GraphQL</text>
</g>
<!-- GraphQL&#45;&gt;Frontend -->
<g id="edge2" class="edge">
<title>GraphQL&#45;&gt;Frontend</title>
<path fill="none" stroke="#000000" stroke-dasharray="5,2" d="M159.8654,-182.4133C151.9598,-190.9088 142.4423,-201.1366 133.8505,-210.3696"/>
<polygon fill="#000000" stroke="#000000" points="131.157,-208.1263 126.9069,-217.8314 136.2815,-212.895 131.157,-208.1263"/>
</g>
<!-- Database -->
<g id="node5" class="node">
<title>Database</title>
<polygon fill="none" stroke="#000000" points="195.8044,-36 128.1956,-36 128.1956,0 195.8044,0 195.8044,-36"/>
<text text-anchor="middle" x="162" y="-13.8" font-family="Times,serif" font-size="14.00" fill="#000000">Database</text>
</g>
<!-- TransactionRunner&#45;&gt;Database -->
<g id="edge4" class="edge">
<title>TransactionRunner&#45;&gt;Database</title>
<path fill="none" stroke="#000000" stroke-dasharray="5,2" d="M98.0112,-73.7079C108.7163,-64.3882 121.8897,-52.9196 133.4956,-42.8156"/>
<polygon fill="#000000" stroke="#000000" points="135.9864,-45.2877 141.2305,-36.0817 131.39,-40.0081 135.9864,-45.2877"/>
</g>
<!-- Database&#45;&gt;GraphQL -->
<g id="edge5" class="edge">
<title>Database&#45;&gt;GraphQL</title>
<path fill="none" stroke="#000000" stroke-dasharray="5,2" d="M171.4866,-36.1336C172.5056,-38.7168 173.3914,-41.3853 174,-44 181.1612,-74.7645 180.8941,-111.1653 179.4846,-135.7437"/>
<polygon fill="#000000" stroke="#000000" points="175.9858,-135.6089 178.8042,-145.822 182.9699,-136.0805 175.9858,-135.6089"/>
</g>
</g>
</svg>
